<?xml version="1.0" encoding="iso-8859-1"?>
<!-- Generator: Adobe Illustrator 16.0.0, SVG Export Plug-In . SVG Version: 6.00 Build 0)  -->
<!DOCTYPE svg PUBLIC "-//W3C//DTD SVG 1.1//EN" "http://www.w3.org/Graphics/SVG/1.1/DTD/svg11.dtd">
<svg version="1.1" id="Capa_1" xmlns="http://www.w3.org/2000/svg" xmlns:xlink="http://www.w3.org/1999/xlink" x="0px" y="0px"
	 width="569.374px" height="569.373px" viewBox="0 0 569.374 569.373" style="enable-background:new 0 0 569.374 569.373;"
	 xml:space="preserve">
<g>
	<path d="M535.282,107.312c43.452,16.524,32.436,79.56,32.436,115.056c0,58.752,12.853,189.72-33.048,228.276
		c-46.512,39.168-153.612,22.644-212.976,22.644c-72.216,0-145.044-1.836-217.26-5.508c-42.84-2.448-89.352,4.896-101.592-47.736
		c-6.732-28.764,0.612-67.319,0.612-96.695c1.224-76.5,4.284-153.612-1.224-230.112v-0.612c1.836,3.672,6.12,6.732,11.628,6.12
		c71.604-11.628,147.492,15.912,220.32,17.748c66.096,1.836,131.58-3.672,197.064-6.732
		C456.946,109.148,510.801,98.132,535.282,107.312z M529.773,202.784c5.509-6.732,2.448-17.136,1.837-24.48
		c-1.225-12.24-2.448-24.48-3.061-37.332c0-3.672-3.06-7.344-7.344-7.344c-15.3,1.836-30.6,3.06-45.9,4.896
		c-3.06,0.612-4.896,1.836-6.12,3.672c-2.447,0-4.283,1.224-4.896,4.284c-0.612,17.748,0.612,34.884,1.224,52.632
		c0,4.284,3.061,6.732,7.344,7.344c11.629,1.224,23.257,1.224,34.272,1.836C515.085,207.68,524.265,208.904,529.773,202.784z
		 M515.085,385.16c8.568-2.448,6.12-14.076-1.836-14.688c-47.124-3.672-98.532,6.732-145.656,9.792
		c-6.731,0.612-6.731,9.792,0,10.404C414.105,392.504,469.185,398.012,515.085,385.16z M511.414,316.004
		c5.508-1.836,6.12-10.403,0-11.628c-45.288-7.956-102.204,9.181-145.044,20.809c-6.12,1.836-3.061,9.792,2.448,9.18
		c26.928-4.284,53.855-7.956,80.783-10.404C469.797,321.512,491.83,322.124,511.414,316.004z M508.353,244.4
		c7.345-1.224,4.284-11.016-1.836-11.628c-53.855-6.12-116.892,4.896-168.3,20.808c-6.12,1.836-5.508,12.24,1.225,11.628
		C395.746,257.864,453.273,254.192,508.353,244.4z M269.673,425.552c0.612,9.792,15.3,9.792,15.3,0
		c-0.612-84.456-2.448-170.136-9.792-253.979c-0.612-7.956-12.24-7.956-12.24,0C258.657,255.416,262.33,341.708,269.673,425.552z
		 M110.553,161.168c1.224-7.956-4.896-14.688-12.852-12.852c-10.404,2.448-18.972,6.732-25.092,14.076
		c-5.508-6.12-12.852-10.404-21.42-12.24c-9.18-2.448-17.748,7.956-12.852,16.524c5.508,9.18,12.852,16.524,22.032,22.032
		c0,0.612,0,0.612,0,1.224c0.612,4.896,4.284,7.344,7.956,7.956c2.448,3.672,6.732,5.508,11.628,4.284
		C97.089,197.888,108.105,176.468,110.553,161.168z"/>
</g>
<g>
</g>
<g>
</g>
<g>
</g>
<g>
</g>
<g>
</g>
<g>
</g>
<g>
</g>
<g>
</g>
<g>
</g>
<g>
</g>
<g>
</g>
<g>
</g>
<g>
</g>
<g>
</g>
<g>
</g>
</svg>
