<?xml version="1.0" encoding="iso-8859-1"?>
<!-- Generator: Adobe Illustrator 16.0.0, SVG Export Plug-In . SVG Version: 6.00 Build 0)  -->
<!DOCTYPE svg PUBLIC "-//W3C//DTD SVG 1.1//EN" "http://www.w3.org/Graphics/SVG/1.1/DTD/svg11.dtd">
<svg version="1.1" id="Capa_1" xmlns="http://www.w3.org/2000/svg" xmlns:xlink="http://www.w3.org/1999/xlink" x="0px" y="0px"
	 width="582.851px" height="582.851px" viewBox="0 0 582.851 582.851" style="enable-background:new 0 0 582.851 582.851;"
	 xml:space="preserve">
<g>
	<g>
		<path d="M484.165,115.283c-11.628-36.72-27.54-94.86-64.261-110.772c-34.271-14.076-85.68,8.568-121.176,16.524
			c-77.724,18.36-155.448,36.108-233.172,53.856c56.916,145.656,96.696,299.88,99.756,456.552c0,0.612,0,0.612,0,1.225
			c112.608-1.837,229.5,21.42,337.824,50.184C516.601,427.402,533.736,267.67,484.165,115.283z M460.908,312.959
			c-81.396,1.836-164.628-8.568-246.023-11.629c-6.12,0-6.12-9.18,0-9.18c81.396-2.448,167.076-6.732,247.86,5.508
			C472.537,298.883,469.477,312.959,460.908,312.959z M448.057,253.595c11.628,1.224,12.24,20.196,0,18.972
			c-76.5-6.732-151.776-10.404-228.276-12.24c-5.508,0-4.896-7.344,0-7.956C295.057,244.415,372.169,245.026,448.057,253.595z
			 M189.792,90.803c7.344-23.256,37.944-23.868,54.468-9.792c2.448-9.792,6.732-18.36,16.524-23.256s20.808-3.06,28.152,4.284
			c4.284-9.792,15.3-15.912,26.316-15.3c11.628,1.224,22.032,9.18,27.54,19.584c7.344-22.644,31.212-48.348,49.571-20.808
			c9.181,14.076,3.061,31.824-2.447,45.9c-7.956,22.644-18.973,43.452-31.212,63.648c-4.284,7.344-14.076,3.672-15.301-3.06
			c-8.567-4.284-16.523-11.628-23.867-17.136c-7.956-6.12-18.973-13.464-25.705-21.42c-5.507,16.524-15.911,31.824-25.091,40.392
			c-2.448,2.448-4.896,2.448-6.732,1.836c-0.612,0-1.836,0.612-2.448,0c-18.36-4.896-40.392-16.524-55.692-27.54
			C194.077,119.566,185.509,105.491,189.792,90.803z M186.733,222.383c72.216-14.688,163.404-28.764,235.62-8.568
			c6.732,1.836,4.896,11.016-1.224,11.016c-38.557,1.836-77.725-3.06-116.28-2.448c-39.78,0.612-78.948,3.672-117.504,3.06
			C184.896,225.442,184.896,222.383,186.733,222.383z M213.049,335.603c80.783-3.06,165.852-3.06,246.023,8.568
			c9.792,1.224,7.345,17.748-2.447,17.136c-81.396-3.672-162.793-12.24-243.576-17.136
			C206.929,344.171,206.929,335.603,213.049,335.603z M456.625,404.759c-74.053-5.508-148.717-17.136-222.769-26.929
			c-6.12-0.611-6.732-10.403,0-10.403c74.664,4.284,150.552,8.567,224.604,20.196C468.864,388.847,466.417,405.37,456.625,404.759z
			 M217.333,426.791c-3.672-1.837-1.224-7.956,3.06-6.732c37.332,10.404,83.232,6.732,121.788,9.18
			c39.78,2.448,79.56,4.284,119.34,8.568c10.404,1.224,11.017,17.748,0,17.136c-48.96-2.448-97.92-7.956-146.268-12.24
			C282.817,439.03,246.097,440.866,217.333,426.791z M465.805,519.202c-0.612-0.611-1.836-1.224-2.448-1.224
			c-3.06,2.448-6.731,4.284-11.628,4.896c-7.344,0.611-12.24-2.448-16.523-7.345c-1.836,4.284-3.673,7.956-5.509,11.628
			c-3.672,6.12-12.239,6.12-15.911,0c-4.284-7.955-9.181-15.911-12.853-24.479c-0.612,3.672-0.612,6.731-1.224,9.792
			c-1.225,8.568-14.076,9.18-14.076,0c0.612-12.852,1.224-25.704,2.448-38.556c0.611-6.732,10.403-11.017,14.075-3.673
			c5.509,11.017,11.629,21.421,18.36,31.824c1.224-2.448,1.836-4.896,2.448-7.956c2.448-7.956,11.628-7.956,16.523-2.448
			c0,0,11.629,14.688,12.24,10.404c1.225-7.344,10.404-7.956,14.688-3.672c3.06,2.448,6.12,5.508,9.18,7.956
			C481.717,513.083,473.148,523.486,465.805,519.202z"/>
		<path d="M299.953,96.311c0.611,0,0.611,0,1.224,0c12.24,3.06,22.644,15.912,31.824,23.868c6.12,5.508,12.852,11.016,17.748,17.748
			c7.344-12.852,14.075-25.704,20.195-39.168c3.673-7.956,7.345-17.136,9.792-25.704c6.12-12.852,0.612-19.584-17.136-20.808
			c-6.12,6.12-10.404,14.076-12.24,22.644c-0.611,1.836-1.836,3.06-3.06,3.06c0,0.612,0,1.224,0,1.836
			c0,4.284-5.508,7.344-8.568,3.672c-6.12-7.344-10.403-17.748-19.584-22.032c-8.567-4.284-20.195-0.612-23.868,7.956
			C299.953,78.562,301.177,87.13,299.953,96.311z"/>
		<path d="M261.396,143.435c6.732-12.852,15.3-23.256,20.196-37.332c3.06-8.568,8.568-25.704-1.224-32.436
			c-14.688-11.016-23.256,7.956-27.54,18.36c0.612,0.612,0.612,1.224,1.224,2.448c1.224,3.672-3.672,7.344-6.732,5.508
			c-0.612-0.612-1.224-0.612-1.836-1.224c-1.836,0-3.06-1.224-3.672-2.448c-6.12-4.284-12.24-7.956-20.808-7.344
			c-6.732,0-15.912,1.836-16.524,10.404c-0.612,5.508,3.672,11.628,7.956,15.3C226.513,126.299,246.097,132.418,261.396,143.435z"/>
	</g>
</g>
<g>
</g>
<g>
</g>
<g>
</g>
<g>
</g>
<g>
</g>
<g>
</g>
<g>
</g>
<g>
</g>
<g>
</g>
<g>
</g>
<g>
</g>
<g>
</g>
<g>
</g>
<g>
</g>
<g>
</g>
</svg>
