<?xml version="1.0" encoding="UTF-8" standalone="no"?>
<!-- Generator: Adobe Illustrator 16.0.0, SVG Export Plug-In . SVG Version: 6.00 Build 0)  -->

<svg
   xmlns:dc="http://purl.org/dc/elements/1.1/"
   xmlns:cc="http://creativecommons.org/ns#"
   xmlns:rdf="http://www.w3.org/1999/02/22-rdf-syntax-ns#"
   xmlns:svg="http://www.w3.org/2000/svg"
   xmlns="http://www.w3.org/2000/svg"
   xmlns:sodipodi="http://sodipodi.sourceforge.net/DTD/sodipodi-0.dtd"
   xmlns:inkscape="http://www.inkscape.org/namespaces/inkscape"
   version="1.1"
   id="Capa_1"
   x="0px"
   y="0px"
   width="520.707px"
   height="520.708px"
   viewBox="0 0 520.707 520.708"
   style="enable-background:new 0 0 520.707 520.708;"
   xml:space="preserve"
   sodipodi:docname="coquin_bg.svg"
   inkscape:version="0.92.3 (2405546, 2018-03-11)"><metadata
   id="metadata53"><rdf:RDF><cc:Work
       rdf:about=""><dc:format>image/svg+xml</dc:format><dc:type
         rdf:resource="http://purl.org/dc/dcmitype/StillImage" /><dc:title /></cc:Work></rdf:RDF></metadata><defs
   id="defs51" /><sodipodi:namedview
   pagecolor="#ffffff"
   bordercolor="#666666"
   borderopacity="1"
   objecttolerance="10"
   gridtolerance="10"
   guidetolerance="10"
   inkscape:pageopacity="0"
   inkscape:pageshadow="2"
   inkscape:window-width="2556"
   inkscape:window-height="1396"
   id="namedview49"
   showgrid="false"
   inkscape:zoom="1.2819254"
   inkscape:cx="365.74088"
   inkscape:cy="282.78396"
   inkscape:window-x="1920"
   inkscape:window-y="20"
   inkscape:window-maximized="1"
   inkscape:current-layer="Capa_1" />
<g
   id="g16"
   style="fill:#7a929f;fill-opacity:1">
	<g
   id="g14"
   style="fill:#7a929f;fill-opacity:1">
		<path
   d="M361.74,165.919c-7.621-67.875-85.441-121.252-180.492-121.252C81.147,44.667,0,103.839,0,176.82    s81.147,132.154,181.248,132.154c3.758,0,7.43-0.249,11.13-0.411c-0.334-3.328-0.669-6.665-0.669-10.061    C191.709,226.478,267.598,167.784,361.74,165.919z M183.896,221.257l-1.836-1.874c-51.417-20.751-70.217-67.531-47.573-88.281    c22.634-20.76,48.578,6.235,48.578,6.235h0.191c0,0,25.943-26.995,48.587-6.235C254.487,151.852,235.314,200.506,183.896,221.257z    "
   id="path2"
   style="fill:#7a929f;fill-opacity:1" />
		<ellipse
   cx="106.488"
   cy="335.615"
   rx="29.453"
   ry="23.294"
   id="ellipse4"
   style="fill:#7a929f;fill-opacity:1" />
		<ellipse
   cx="83.519"
   cy="375.223"
   rx="12.9"
   ry="9.974"
   id="ellipse6"
   style="fill:#7a929f;fill-opacity:1" />
		<path
   d="M520.707,298.512c0-62.185-69.127-112.589-154.406-112.589c-1.5,0-2.955,0.134-4.445,0.163    c-83.203,1.731-149.96,51.341-149.96,112.426c0,2.831,0.296,5.604,0.583,8.377c5.9,58.255,72.427,104.212,153.832,104.212    C451.58,411.101,520.707,360.698,520.707,298.512z M365.613,336.351l-1.568,0.02c-43.807-17.682-60.139-55.96-40.852-73.642    c19.287-17.681,41.396,8.482,41.396,8.482h0.162c0,0,22.1-26.163,41.396-8.482C425.445,280.411,409.418,318.67,365.613,336.351z"
   id="path8"
   style="fill:#7a929f;fill-opacity:1" />
		<path
   d="M455.09,433.793c0-6.895-4.457-12.958-11.207-16.515c-3.979-2.095-8.75-3.328-13.885-3.328    c-11.123,0-20.445,5.767-23.734,13.685c-0.812,1.95-1.359,3.997-1.359,6.158c0,10.958,11.236,19.842,25.094,19.842    C443.854,453.635,455.09,444.751,455.09,433.793z"
   id="path10"
   style="fill:#7a929f;fill-opacity:1" />
		<ellipse
   cx="449.562"
   cy="467.539"
   rx="10.996"
   ry="8.501"
   id="ellipse12"
   style="fill:#7a929f;fill-opacity:1" />
	</g>
</g>
<g
   id="g18">
</g>
<g
   id="g20">
</g>
<g
   id="g22">
</g>
<g
   id="g24">
</g>
<g
   id="g26">
</g>
<g
   id="g28">
</g>
<g
   id="g30">
</g>
<g
   id="g32">
</g>
<g
   id="g34">
</g>
<g
   id="g36">
</g>
<g
   id="g38">
</g>
<g
   id="g40">
</g>
<g
   id="g42">
</g>
<g
   id="g44">
</g>
<g
   id="g46">
</g>
<path
   style="opacity:1;vector-effect:none;fill:#8c8c8c;fill-opacity:1;stroke:none;stroke-width:4.86354446;stroke-linecap:butt;stroke-linejoin:miter;stroke-miterlimit:4;stroke-dasharray:none;stroke-dashoffset:0;stroke-opacity:1"
   d="m 179.89349,230.3634 c -0.29941,-0.48633 -5.32664,-3.28553 -11.17165,-6.22043 -14.44152,-7.25141 -24.07199,-14.07736 -34.5593,-24.49523 -18.14909,-18.02888 -26.1982,-35.24136 -25.48103,-54.4894 0.28684,-7.69873 0.76114,-9.78509 3.48711,-15.33939 7.6158,-15.51749 24.76141,-23.50389 40.56067,-18.89308 7.74325,2.25978 13.57991,5.35035 21.25064,11.25251 l 6.44807,4.96137 5.04024,-4.42621 c 6.00934,-5.27725 16.65874,-10.75297 23.9643,-12.322 11.94804,-2.5661 24.05446,1.57194 32.84371,11.22613 6.77237,7.43883 9.19891,14.07474 9.28864,25.40185 0.23012,29.0512 -23.7263,60.83381 -59.47743,78.90773 -9.31224,4.7078 -11.53001,5.51462 -12.19397,4.43615 z"
   id="path4563"
   inkscape:connector-curvature="0" /><path
   style="opacity:1;vector-effect:none;fill:#8e8b8b;fill-opacity:1;stroke:none;stroke-width:4.50999641;stroke-linecap:butt;stroke-linejoin:miter;stroke-miterlimit:4;stroke-dasharray:none;stroke-dashoffset:0;stroke-opacity:1"
   d="m 357.1324,340.28494 c -21.88205,-10.70226 -39.51061,-28.84119 -45.55808,-46.87713 -2.76173,-8.2365 -2.78371,-18.80907 -0.0521,-25.0693 2.34677,-5.37836 8.05742,-11.67653 13.05956,-14.40316 2.71702,-1.48103 5.17888,-1.95311 10.30417,-1.9759 5.99539,-0.0267 7.46676,0.33955 13.4113,3.33788 3.67242,1.85229 9.07316,5.59193 12.00167,8.31032 l 5.32455,4.9425 5.57444,-5.21741 c 10.615,-9.93511 22.5073,-13.83738 32.17467,-10.55759 5.75159,1.9513 12.09592,7.64466 15.18589,13.6277 2.17819,4.21758 2.41191,5.59871 2.41022,14.24242 -0.002,10.51591 -1.44844,15.41814 -7.71403,26.14553 -4.2183,7.22221 -15.91961,19.01423 -24.85992,25.05262 -9.24213,6.24225 -19.75871,11.703 -22.53825,11.703 -1.13056,0 -5.05638,-1.46767 -8.72405,-3.26148 z"
   id="path4565"
   inkscape:connector-curvature="0" /></svg>