<?xml version="1.0" encoding="UTF-8" standalone="no"?>
<!-- Generator: Adobe Illustrator 18.0.0, SVG Export Plug-In . SVG Version: 6.00 Build 0)  -->

<svg
   xmlns:dc="http://purl.org/dc/elements/1.1/"
   xmlns:cc="http://creativecommons.org/ns#"
   xmlns:rdf="http://www.w3.org/1999/02/22-rdf-syntax-ns#"
   xmlns:svg="http://www.w3.org/2000/svg"
   xmlns="http://www.w3.org/2000/svg"
   xmlns:sodipodi="http://sodipodi.sourceforge.net/DTD/sodipodi-0.dtd"
   xmlns:inkscape="http://www.inkscape.org/namespaces/inkscape"
   version="1.1"
   id="Capa_1"
   x="0px"
   y="0px"
   viewBox="0 0 176.21983 156.73947"
   xml:space="preserve"
   sodipodi:docname="handcuffs.svg"
   width="176.21983"
   height="156.73947"
   inkscape:version="0.92.3 (2405546, 2018-03-11)"><metadata
   id="metadata53"><rdf:RDF><cc:Work
       rdf:about=""><dc:format>image/svg+xml</dc:format><dc:type
         rdf:resource="http://purl.org/dc/dcmitype/StillImage" /><dc:title></dc:title></cc:Work></rdf:RDF></metadata><defs
   id="defs51" /><sodipodi:namedview
   pagecolor="#ffffff"
   bordercolor="#666666"
   borderopacity="1"
   objecttolerance="10"
   gridtolerance="10"
   guidetolerance="10"
   inkscape:pageopacity="0"
   inkscape:pageshadow="2"
   inkscape:window-width="2556"
   inkscape:window-height="1396"
   id="namedview49"
   showgrid="false"
   fit-margin-top="0"
   fit-margin-left="0"
   fit-margin-right="0"
   fit-margin-bottom="0"
   inkscape:zoom="0.98175475"
   inkscape:cx="116.79911"
   inkscape:cy="41.673061"
   inkscape:window-x="1920"
   inkscape:window-y="20"
   inkscape:window-maximized="1"
   inkscape:current-layer="Capa_1" />
<g
   id="g16"
   style="fill:#757575;fill-opacity:1"
   transform="matrix(0.47061091,-0.33620467,0.33620467,0.47061091,-58.657854,45.040218)">
	<circle
   cx="120.816"
   cy="115.969"
   r="5"
   id="circle2"
   style="fill:#757575;fill-opacity:1" />
	<circle
   cx="102.316"
   cy="128.96899"
   r="5"
   id="circle4"
   style="fill:#757575;fill-opacity:1" />
	<circle
   cx="94.816002"
   cy="109.469"
   r="5"
   id="circle6"
   style="fill:#757575;fill-opacity:1" />
	<path
   d="m 314.007,141.706 c -5.124,-4.451 -9.981,-7.36 -14.678,-10.173 -10.642,-6.373 -22.703,-13.597 -43.287,-42.775 l -2.2,-3.119 -22.917,6.02 c -33.74,-33.274 -88.152,-33.274 -121.892,0 l -22.917,-6.02 -2.2,3.119 c -20.583,29.179 -32.645,36.402 -43.286,42.775 -4.697,2.813 -9.554,5.722 -14.678,10.173 -28.25,24.54 -34.254,66.537 -13.966,97.689 11.706,17.973 29.725,29.799 50.737,33.297 0.57,0.095 2.377,0.265 2.547,0.28 2.139,0.184 4.275,0.276 6.406,0.276 21.44,0 42.164,-9.244 56.494,-25.479 23.737,-26.894 25.197,-66.244 3.895,-94.676 l 14.156,-51.665 -24.488,-6.433 c 27.911,-23.063 68.586,-23.063 96.497,0 l -24.489,6.433 14.156,51.665 c -21.302,28.432 -19.842,67.783 3.896,94.676 14.335,16.242 35.173,25.486 56.814,25.486 2.344,0 4.697,-0.108 7.052,-0.328 0.28,-0.026 2.605,-0.41 3.115,-0.506 20.355,-3.808 37.783,-15.492 49.202,-33.025 20.285,-31.153 14.281,-73.15 -13.969,-97.69 z M 80.776,157.114 c 19.178,3.831 33.04,20.705 33.04,40.354 0,22.702 -18.469,41.171 -41.166,41.171 -1.332,-0.001 -5.59,-0.164 -9.255,-0.897 -0.055,-0.011 -0.108,-0.015 -0.163,-0.024 -8.214,-2.193 -15.5,-6.94 -20.856,-13.695 -13.622,-17.181 -10.728,-42.24 6.453,-55.862 l 0.244,-0.205 c 0.031,-0.027 3.184,-2.78 9.059,-5.487 4.871,-2.244 12.596,-4.871 22.644,-5.355 z m 39.145,83.375 c -10,11.331 -23.646,18.672 -38.29,20.977 0.776,-2.181 1.122,-4.517 0.977,-6.861 -0.125,-2.004 -0.596,-3.92 -1.352,-5.688 24.683,-4.118 43.561,-25.614 43.561,-51.448 0,-13.738 -5.357,-26.401 -14.236,-35.817 3.038,1.022 6.103,2.211 9.189,3.568 0.967,0.425 1.991,0.64 3.044,0.64 v 0 c 1.409,0 2.738,-0.412 3.887,-1.107 14.48,23.709 12.105,54.34 -6.78,75.736 z m 0.59,-86.891 c -12.493,-5.025 -24.746,-7.57 -36.475,-7.57 -25.616,0 -40.388,12.075 -42.149,13.6 -21.837,17.409 -25.493,49.333 -8.13,71.229 8.137,10.263 19.759,16.916 32.726,18.733 2.802,0.392 4.966,2.786 5.146,5.693 0.108,1.752 -0.494,3.421 -1.697,4.7 -1.413,1.503 -3.387,2.195 -5.402,1.857 C 46.593,258.854 31.206,248.75 21.203,233.39 3.894,206.816 9.037,170.969 33.164,150.01 c 4.393,-3.816 8.63,-6.354 13.116,-9.041 11.181,-6.695 23.801,-14.253 44.401,-42.759 l 41.991,11.031 c 0,0.001 -11.943,43.73 -12.161,44.357 z m 99.526,86.891 c -18.886,-21.396 -21.261,-52.028 -6.78,-75.738 1.149,0.696 2.478,1.108 3.887,1.108 1.053,0 2.077,-0.215 3.046,-0.641 3.085,-1.356 6.149,-2.545 9.187,-3.567 -8.879,9.415 -14.236,22.079 -14.236,35.817 0,25.833 18.876,47.328 43.56,51.447 -0.756,1.768 -1.227,3.685 -1.351,5.688 -0.145,2.334 0.198,4.657 0.966,6.829 -14.693,-2.344 -28.326,-9.666 -38.279,-20.943 z m 56.684,-2.77 c -0.053,0.009 -0.105,0.013 -0.158,0.023 -4.38,0.876 -9.211,0.897 -9.251,0.897 -22.701,0 -41.17,-18.469 -41.17,-41.171 0,-19.65 13.864,-36.526 33.044,-40.355 20.267,0.976 31.581,10.738 31.678,10.823 l 0.265,0.225 c 8.323,6.599 13.578,16.044 14.796,26.595 1.218,10.551 -1.744,20.945 -8.344,29.268 -5.357,6.755 -12.645,11.503 -20.86,13.695 z m 42.034,-4.328 c -10.003,15.36 -25.39,25.464 -43.328,28.451 -2.006,0.334 -3.988,-0.354 -5.401,-1.857 -1.203,-1.279 -1.806,-2.949 -1.697,-4.701 0.18,-2.907 2.344,-5.302 5.146,-5.693 12.966,-1.817 24.588,-8.471 32.725,-18.733 8.424,-10.625 12.207,-23.895 10.651,-37.364 -1.551,-13.424 -8.218,-25.445 -18.781,-33.865 -1.761,-1.524 -16.533,-13.6 -42.149,-13.6 -11.729,0 -23.982,2.545 -36.474,7.57 -0.176,-0.544 -12.162,-44.356 -12.162,-44.356 l 41.991,-11.031 c 20.6,28.506 33.22,36.063 44.401,42.759 4.486,2.687 8.724,5.225 13.116,9.041 24.128,20.957 29.27,56.804 11.962,83.379 z"
   id="path8"
   style="fill:#757575;fill-opacity:1"
   inkscape:connector-curvature="0" />
	<circle
   cx="219.14101"
   cy="115.969"
   r="5"
   id="circle10"
   style="fill:#757575;fill-opacity:1" />
	<circle
   cx="237.64101"
   cy="128.96899"
   r="5"
   id="circle12"
   style="fill:#757575;fill-opacity:1" />
	<circle
   cx="245.14101"
   cy="109.469"
   r="5"
   id="circle14"
   style="fill:#757575;fill-opacity:1" />
</g>
<g
   id="g18"
   transform="translate(-23.222539,-167.7519)">
</g>
<g
   id="g20"
   transform="translate(-23.222539,-167.7519)">
</g>
<g
   id="g22"
   transform="translate(-23.222539,-167.7519)">
</g>
<g
   id="g24"
   transform="translate(-23.222539,-167.7519)">
</g>
<g
   id="g26"
   transform="translate(-23.222539,-167.7519)">
</g>
<g
   id="g28"
   transform="translate(-23.222539,-167.7519)">
</g>
<g
   id="g30"
   transform="translate(-23.222539,-167.7519)">
</g>
<g
   id="g32"
   transform="translate(-23.222539,-167.7519)">
</g>
<g
   id="g34"
   transform="translate(-23.222539,-167.7519)">
</g>
<g
   id="g36"
   transform="translate(-23.222539,-167.7519)">
</g>
<g
   id="g38"
   transform="translate(-23.222539,-167.7519)">
</g>
<g
   id="g40"
   transform="translate(-23.222539,-167.7519)">
</g>
<g
   id="g42"
   transform="translate(-23.222539,-167.7519)">
</g>
<g
   id="g44"
   transform="translate(-23.222539,-167.7519)">
</g>
<g
   id="g46"
   transform="translate(-23.222539,-167.7519)">
</g>
</svg>