<?xml version="1.0" encoding="UTF-8" standalone="no"?>
<!-- Created with Inkscape (http://www.inkscape.org/) -->

<svg
   xmlns:dc="http://purl.org/dc/elements/1.1/"
   xmlns:cc="http://creativecommons.org/ns#"
   xmlns:rdf="http://www.w3.org/1999/02/22-rdf-syntax-ns#"
   xmlns:svg="http://www.w3.org/2000/svg"
   xmlns="http://www.w3.org/2000/svg"
   xmlns:sodipodi="http://sodipodi.sourceforge.net/DTD/sodipodi-0.dtd"
   xmlns:inkscape="http://www.inkscape.org/namespaces/inkscape"
   width="50mm"
   height="41.736092mm"
   viewBox="0 0 50 41.736093"
   version="1.1"
   id="svg8"
   inkscape:version="0.92.3 (2405546, 2018-03-11)"
   sodipodi:docname="hot.svg">
  <defs
     id="defs2" />
  <sodipodi:namedview
     id="base"
     pagecolor="#ffffff"
     bordercolor="#666666"
     borderopacity="1.0"
     inkscape:pageopacity="0.0"
     inkscape:pageshadow="2"
     inkscape:zoom="5.6"
     inkscape:cx="150.56706"
     inkscape:cy="69.099849"
     inkscape:document-units="mm"
     inkscape:current-layer="layer1"
     showgrid="false"
     fit-margin-top="0"
     fit-margin-left="0"
     fit-margin-right="0"
     fit-margin-bottom="0"
     inkscape:window-width="2556"
     inkscape:window-height="1396"
     inkscape:window-x="1920"
     inkscape:window-y="20"
     inkscape:window-maximized="1" />
  <metadata
     id="metadata5">
    <rdf:RDF>
      <cc:Work
         rdf:about="">
        <dc:format>image/svg+xml</dc:format>
        <dc:type
           rdf:resource="http://purl.org/dc/dcmitype/StillImage" />
        <dc:title />
      </cc:Work>
    </rdf:RDF>
  </metadata>
  <g
     inkscape:label="Calque 1"
     inkscape:groupmode="layer"
     id="layer1"
     transform="translate(-73.824138,101.26367)">
    <path
       style="fill:#ffc107;fill-rule:evenodd;stroke:none;stroke-width:0.26458332px;stroke-linecap:butt;stroke-linejoin:miter;stroke-opacity:1;fill-opacity:1"
       d="m 103.67615,-60.925421 7.1677,-4.247481 8.71541,-9.993441 3.63564,-8.213283 -0.99976,-2.966654 -1.90291,-1.169739 -0.8937,-6.381107 -16.1395,-3.711554 -11.717258,6.898066 4.204985,27.356027 5.557153,1.975836 z"
       id="path846"
       inkscape:connector-curvature="0"
       sodipodi:nodetypes="cccccccccccc" />
    <g
       id="g4701"
       transform="matrix(0.28983636,0,0,0.28983636,73.824344,-105.39563)"
       style="fill:#ef483f;fill-opacity:1">
      <g
         id="g4645"
         style="fill:#ef483f;fill-opacity:1">
        <path
           id="path4643"
           d="m 170.466,64.888 c -1.525,-2.394 -3.865,-3.824 -7.034,-4.12 0.106,-2.772 0.089,-5.562 -0.206,-8.405 C 158.443,6.017 106.7,6.732 81.769,29.104 56.84,6.732 5.121,6.017 0.312,52.363 c -6.186,59.663 81.456,105.892 81.456,105.892 0,0 3.662,-1.933 9.39,-5.491 3.321,2.305 7.061,3.83 11.145,3.83 v 0 c 3.57,0 6.986,-1.152 10.155,-3.422 20.096,-14.399 46.423,-37.617 57.671,-66.467 1.146,-2.932 4.539,-15.209 0.337,-21.817 z M 149.358,44.041 c 4.285,-3.529 11.603,8.21 1.596,16.898 4.279,-7.712 -5.887,-13.37 -1.596,-16.898 z M 71.771,56.17 c 0.745,-3.896 10.12,-0.792 8.595,8.553 -1.174,-6.195 -9.334,-4.646 -8.595,-8.553 z m 92.725,28.33 c -10.729,27.509 -36.216,49.893 -55.562,63.754 -12.93,9.256 -25.549,-12.088 -28.927,-19.979 -4.54,-10.592 -5.042,-42.871 -1.767,-55.23 -0.254,12.607 7.513,21.533 13.068,12.738 -5.249,13.488 -1.726,24.736 6.354,27.614 10.592,3.783 13.618,-16.645 5.987,-23.205 6.874,-8.571 12.785,-0.225 12.419,-6.301 C 115.713,77.98 105.475,63.859 96.142,56.146 85.63,47.457 95.64,29.795 109.004,31.935 c -17.224,14.883 11.219,33.798 15.634,33.798 8.115,0 5.55,-20.682 3.021,-28.833 8.6,3.937 17.661,18.743 18.163,35.388 0.443,14.606 12.318,-5.863 17.337,-5.532 5.02,0.337 3.334,12.607 1.337,17.744 z"
           inkscape:connector-curvature="0"
           style="fill:#ef483f;fill-opacity:1" />
      </g>
      <g
         id="g4647"
         style="fill:#ef483f;fill-opacity:1" />
      <g
         id="g4649"
         style="fill:#ef483f;fill-opacity:1" />
      <g
         id="g4651"
         style="fill:#ef483f;fill-opacity:1" />
      <g
         id="g4653"
         style="fill:#ef483f;fill-opacity:1" />
      <g
         id="g4655"
         style="fill:#ef483f;fill-opacity:1" />
      <g
         id="g4657"
         style="fill:#ef483f;fill-opacity:1" />
      <g
         id="g4659"
         style="fill:#ef483f;fill-opacity:1" />
      <g
         id="g4661"
         style="fill:#ef483f;fill-opacity:1" />
      <g
         id="g4663"
         style="fill:#ef483f;fill-opacity:1" />
      <g
         id="g4665"
         style="fill:#ef483f;fill-opacity:1" />
      <g
         id="g4667"
         style="fill:#ef483f;fill-opacity:1" />
      <g
         id="g4669"
         style="fill:#ef483f;fill-opacity:1" />
      <g
         id="g4671"
         style="fill:#ef483f;fill-opacity:1" />
      <g
         id="g4673"
         style="fill:#ef483f;fill-opacity:1" />
      <g
         id="g4675"
         style="fill:#ef483f;fill-opacity:1" />
    </g>
  </g>
</svg>
