<?xml version="1.0" encoding="UTF-8" standalone="no"?>
<!-- Created with Inkscape (http://www.inkscape.org/) -->

<svg
   xmlns:dc="http://purl.org/dc/elements/1.1/"
   xmlns:cc="http://creativecommons.org/ns#"
   xmlns:rdf="http://www.w3.org/1999/02/22-rdf-syntax-ns#"
   xmlns:svg="http://www.w3.org/2000/svg"
   xmlns="http://www.w3.org/2000/svg"
   xmlns:sodipodi="http://sodipodi.sourceforge.net/DTD/sodipodi-0.dtd"
   xmlns:inkscape="http://www.inkscape.org/namespaces/inkscape"
   sodipodi:docname="position.svg"
   inkscape:version="0.92.3 (2405546, 2018-03-11)"
   id="svg8"
   version="1.1"
   viewBox="0 0 47.3064 50.000005"
   height="50.000004mm"
   width="47.3064mm">
  <defs
     id="defs2" />
  <sodipodi:namedview
     inkscape:window-maximized="1"
     inkscape:window-y="20"
     inkscape:window-x="1920"
     inkscape:window-height="1396"
     inkscape:window-width="2556"
     fit-margin-bottom="0"
     fit-margin-right="0"
     fit-margin-left="0"
     fit-margin-top="0"
     showgrid="false"
     inkscape:current-layer="layer1"
     inkscape:document-units="mm"
     inkscape:cy="-56.121241"
     inkscape:cx="544.22574"
     inkscape:zoom="0.7"
     inkscape:pageshadow="2"
     inkscape:pageopacity="0.0"
     borderopacity="1.0"
     bordercolor="#666666"
     pagecolor="#ffffff"
     id="base" />
  <metadata
     id="metadata5">
    <rdf:RDF>
      <cc:Work
         rdf:about="">
        <dc:format>image/svg+xml</dc:format>
        <dc:type
           rdf:resource="http://purl.org/dc/dcmitype/StillImage" />
        <dc:title />
      </cc:Work>
    </rdf:RDF>
  </metadata>
  <g
     inkscape:label="Calque 1"
     inkscape:groupmode="layer"
     id="layer1"
     transform="translate(-10.914985,105.39562)">
    <g
       id="g4576"
       transform="matrix(0.01667171,0,0,-0.01667171,8.2332849,-55.380494)"
       style="fill:#9971d2;fill-opacity:1;stroke:none">
      <path
         id="path4570"
         d="m 1671,2981 c 292,-75 504,-295 563,-583 94,-460 -264,-898 -734,-898 -354,0 -663,-253 -734,-602 -61,-299 68,-607 326,-775 145,-94 259,-124 474,-122 164,1 203,6 344,46 146,40 379,155 484,236 229,179 382,371 491,617 39,89 87,241 104,332 12,67 13,467 0,533 -28,149 -110,374 -174,475 -14,22 -25,42 -25,46 0,13 -122,173 -181,238 -51,55 -147,142 -204,184 -52,38 -116,82 -120,82 -3,0 -22,11 -43,23 -143,90 -403,175 -561,183 l -86,4 z m 1044,-857 c 31,-12 35,-50 20,-167 -8,-62 -26,-161 -40,-221 -14,-60 -24,-111 -22,-112 1,-1 29,-13 62,-26 53,-21 60,-27 63,-55 2,-25 -7,-43 -50,-94 -81,-98 -214,-225 -313,-300 -132,-99 -156,-121 -224,-204 -47,-56 -57,-73 -39,-66 62,23 238,140 348,230 41,33 84,61 94,61 42,0 68,-48 50,-94 -16,-43 -313,-241 -457,-305 -176,-79 -270,-99 -307,-66 -24,22 -160,287 -160,312 0,11 26,57 59,101 74,103 132,214 168,323 36,105 38,109 71,109 33,0 45,-8 61,-37 14,-28 -25,-140 -99,-280 -27,-53 -49,-98 -47,-99 2,-2 34,17 71,42 59,40 72,54 96,107 49,108 96,285 115,435 9,72 27,80 101,47 31,-14 62,-25 68,-25 16,0 98,156 142,270 20,52 41,101 46,108 11,13 94,17 123,6 z M 1617,950 c 75,-43 113,-111 113,-200 0,-135 -95,-230 -230,-230 -135,0 -230,95 -230,230 0,135 95,230 230,230 54,0 74,-5 117,-30 z"
         inkscape:connector-curvature="0"
         style="fill:#9971d2;fill-opacity:1" />
      <path
         id="path4572"
         d="m 1383,2450 c -153,-88 -153,-312 0,-400 112,-64 253,-28 317,83 64,112 28,253 -83,317 -43,25 -63,30 -117,30 -54,0 -74,-5 -117,-30 z"
         inkscape:connector-curvature="0"
         style="fill:#9971d2;fill-opacity:1" />
      <path
         id="path4574"
         d="m 1040,2333 c -86,-22 -255,-93 -349,-146 -155,-88 -305,-209 -328,-265 -12,-30 -12,-37 2,-58 24,-37 45,-30 135,46 72,61 139,108 227,158 137,80 135,71 -28,-95 C 614,1886 522,1786 495,1750 330,1534 215,1261 174,985 156,871 156,870 177,842 c 19,-24 26,-27 74,-25 68,3 85,22 94,105 29,265 158,572 319,763 22,26 19,15 -20,-78 -83,-198 -122,-411 -111,-610 8,-139 13,-147 82,-147 29,0 65,4 79,10 l 25,9 -6,143 c -5,111 -2,168 11,248 30,182 103,366 188,471 31,39 139,132 145,125 2,-2 -19,-45 -46,-97 -59,-113 -95,-213 -86,-246 8,-33 51,-48 81,-28 13,8 24,22 24,29 0,27 63,162 107,231 25,39 72,100 105,137 62,71 82,114 71,157 -9,37 -130,278 -144,287 -28,17 -78,20 -129,7 z"
         inkscape:connector-curvature="0"
         style="fill:#9971d2;fill-opacity:1" />
    </g>
  </g>
</svg>
