<?xml version="1.0" encoding="UTF-8" standalone="no"?>
<!-- Created with Inkscape (http://www.inkscape.org/) -->

<svg
   xmlns:dc="http://purl.org/dc/elements/1.1/"
   xmlns:cc="http://creativecommons.org/ns#"
   xmlns:rdf="http://www.w3.org/1999/02/22-rdf-syntax-ns#"
   xmlns:svg="http://www.w3.org/2000/svg"
   xmlns="http://www.w3.org/2000/svg"
   xmlns:sodipodi="http://sodipodi.sourceforge.net/DTD/sodipodi-0.dtd"
   xmlns:inkscape="http://www.inkscape.org/namespaces/inkscape"
   width="37.547539mm"
   height="50mm"
   viewBox="0 0 37.547539 50.000001"
   version="1.1"
   id="svg8"
   inkscape:version="0.92.3 (2405546, 2018-03-11)"
   sodipodi:docname="soft_bg.svg">
  <defs
     id="defs2" />
  <sodipodi:namedview
     id="base"
     pagecolor="#ffffff"
     bordercolor="#666666"
     borderopacity="1.0"
     inkscape:pageopacity="0.0"
     inkscape:pageshadow="2"
     inkscape:zoom="0.7"
     inkscape:cx="127.21238"
     inkscape:cy="211.02161"
     inkscape:document-units="mm"
     inkscape:current-layer="layer1"
     showgrid="false"
     fit-margin-top="0"
     fit-margin-left="0"
     fit-margin-right="0"
     fit-margin-bottom="0"
     inkscape:window-width="1916"
     inkscape:window-height="1036"
     inkscape:window-x="0"
     inkscape:window-y="20"
     inkscape:window-maximized="1" />
  <metadata
     id="metadata5">
    <rdf:RDF>
      <cc:Work
         rdf:about="">
        <dc:format>image/svg+xml</dc:format>
        <dc:type
           rdf:resource="http://purl.org/dc/dcmitype/StillImage" />
        <dc:title />
      </cc:Work>
    </rdf:RDF>
  </metadata>
  <g
     inkscape:label="Calque 1"
     inkscape:groupmode="layer"
     id="layer1"
     transform="translate(-121.24977,34.714074)">
    <g
       id="g4641"
       transform="matrix(1.96327,0,0,1.96327,115.02424,-34.714634)"
       style="fill:#767676;fill-opacity:1">
      <g
         id="g4585"
         style="fill:#767676;fill-opacity:1">
        <path
           id="path4583"
           d="m 19.417,16.694 c -0.096,0 -0.188,0.02 -0.282,0.028 0.096,-0.59 0.16,-0.658 0.172,-1.28 0.006,-0.051 0.016,-0.101 0.019,-0.154 -0.149,-3.101 -3.876,-4.877 -8.076,-4.915 -4.203,0.036 -7.929,1.813 -8.079,4.914 0.003,0.058 0.016,0.112 0.019,0.168 0,-0.002 0,-0.002 0,-0.002 0.125,5.557 3.681,10.015 8.06,10.015 2.397,0 4.543,-1.344 6.019,-3.465 0.526,0.599 1.289,0.98 2.149,0.98 1.588,0 2.878,-1.823 2.878,-3.412 -10e-4,-1.589 -1.29,-2.877 -2.879,-2.877 z m -2.952,0.739 c -1.289,0.735 -3.167,1.224 -5.253,1.22 C 9.124,18.657 7.245,18.168 5.955,17.433 4.646,16.689 4.029,15.777 4.039,14.97 4.028,14.156 4.648,13.244 5.955,12.501 c 1.291,-0.736 3.17,-1.222 5.257,-1.22 2.085,-0.003 3.964,0.484 5.253,1.22 1.309,0.743 1.929,1.655 1.918,2.469 0.01,0.805 -0.609,1.719 -1.918,2.463 z m 2.952,3.99 c -0.61,-10e-4 -1.101,-0.424 -1.251,-0.985 0.208,-0.451 0.392,-1.46 0.548,-1.951 0.206,-0.132 0.438,-0.231 0.702,-0.234 0.724,0.003 1.314,0.592 1.317,1.318 -0.002,0.729 -0.591,1.851 -1.316,1.852 z m -4.713,-7.629 c 10e-4,-0.035 0,-0.069 -0.004,-0.101 -0.059,-0.454 -0.276,-0.771 -0.662,-0.97 -0.382,-0.197 -0.937,-0.274 -1.654,-0.231 -1.557,0.095 -4.638,1.85 -5.65,2.506 0.958,0.728 3.896,2.307 5.453,2.525 0.711,0.1 1.271,0.066 1.667,-0.099 0.398,-0.169 0.64,-0.469 0.735,-0.914 0.008,-0.033 0.012,-0.067 0.012,-0.101 0.017,-0.41 -0.303,-0.835 -0.812,-1.086 l -0.568,-0.276 0.587,-0.235 c 0.529,-0.21 0.881,-0.609 0.896,-1.018 z m -1.832,1.06 -0.404,0.161 0.39,0.191 c 0.351,0.171 0.571,0.464 0.559,0.745 -10e-4,0.024 -0.003,0.048 -0.008,0.071 -0.067,0.307 -0.233,0.513 -0.507,0.629 -0.272,0.114 -0.657,0.137 -1.145,0.069 -1.072,-0.15 -3.201,-1.179 -3.86,-1.679 0.695,-0.451 2.924,-1.716 3.995,-1.781 0.493,-0.029 0.874,0.024 1.137,0.16 0.264,0.136 0.414,0.353 0.454,0.667 0.004,0.021 0.004,0.046 0.004,0.069 -0.011,0.28 -0.251,0.555 -0.615,0.698 z M 9.444,7.298 C 9.335,6.948 9.405,6.511 9.644,6.203 9.88,5.896 10.204,5.709 10.523,5.565 10.695,5.496 10.829,5.445 10.97,5.374 11.11,5.303 11.24,5.221 11.356,5.13 11.592,4.948 11.734,4.7 11.719,4.415 11.702,4.13 11.553,3.835 11.369,3.571 11.363,3.56 11.353,3.552 11.347,3.542 11.344,3.544 11.342,3.547 11.341,3.549 11.171,3.687 10.95,3.723 10.808,3.54 10.752,3.469 10.697,3.4 10.643,3.33 10.391,3.004 10.143,2.668 9.959,2.298 9.751,1.885 9.599,1.407 9.739,0.951 c 0.167,-0.553 0.809,-1.119 1.417,-0.904 0.352,0.125 0.61,0.434 0.799,0.762 0.273,-0.191 0.593,-0.344 0.92,-0.273 0.333,0.073 0.423,0.434 0.43,0.724 0.008,0.352 -0.121,0.718 -0.283,1.026 -0.205,0.389 -0.502,0.716 -0.876,0.947 -0.172,0.106 -0.423,0.055 -0.462,-0.165 -0.043,-0.239 0.129,-0.452 0.317,-0.573 0.003,-0.002 0.007,-0.005 0.01,-0.007 0.001,0 0.001,0 0.002,-10e-4 0.023,-0.014 0.046,-0.032 0.011,-0.009 0.001,-0.001 0.002,-0.001 0.003,-0.002 0.032,-0.023 0.063,-0.048 0.092,-0.074 0.004,-0.005 0.01,-0.01 0.015,-0.015 0.02,-0.021 0.04,-0.044 0.058,-0.066 0.026,-0.03 0.05,-0.061 0.073,-0.092 0.038,-0.059 0.073,-0.12 0.104,-0.182 0.008,-0.016 0.017,-0.034 0.025,-0.05 0.009,-0.02 0.021,-0.053 0.027,-0.067 0.021,-0.064 0.043,-0.128 0.058,-0.192 0.002,-0.006 0.004,-0.013 0.005,-0.019 0.004,-0.024 0.008,-0.049 0.011,-0.072 0.004,-0.04 0.007,-0.079 0.008,-0.12 C 12.501,1.511 12.5,1.492 12.499,1.482 12.495,1.46 12.492,1.439 12.487,1.417 12.485,1.417 12.485,1.415 12.483,1.414 12.477,1.403 12.471,1.392 12.464,1.38 12.46,1.377 12.457,1.374 12.454,1.372 12.451,1.371 12.449,1.37 12.447,1.368 12.438,1.37 12.428,1.37 12.42,1.371 12.414,1.372 12.407,1.374 12.399,1.377 12.392,1.379 12.385,1.381 12.378,1.383 12.352,1.395 12.328,1.407 12.303,1.421 12.28,1.433 12.214,1.477 12.211,1.478 12.196,1.489 12.18,1.499 12.166,1.511 12.077,1.577 11.992,1.649 11.912,1.724 11.784,1.84 11.474,1.925 11.381,1.714 11.294,1.519 11.188,1.328 11.058,1.159 11.048,1.147 11.036,1.133 11.033,1.128 11.014,1.107 10.996,1.087 10.977,1.068 10.939,1.03 10.9,0.992 10.857,0.959 10.837,0.943 10.816,0.928 10.794,0.914 10.787,0.909 10.768,0.9 10.758,0.893 10.723,0.878 10.69,0.866 10.653,0.857 c 0,0 0,0 -0.001,0 -0.017,0 -0.032,-0.001 -0.049,0 -0.008,0 -0.015,0.002 -0.019,0.004 -0.003,0 -0.005,0.001 -0.007,0.002 -0.015,0.008 -0.034,0.02 -0.041,0.024 -0.005,0.004 -0.01,0.009 -0.015,0.015 -0.005,0.003 -0.008,0.01 -0.012,0.017 -0.003,0.009 -0.007,0.02 -0.011,0.03 -0.003,0.025 -0.008,0.062 -0.009,0.078 0,0.014 -0.001,0.027 -0.001,0.041 0,0.004 0,0.007 0,0.009 0.01,0.093 0.027,0.182 0.054,0.272 0.003,0.015 0.008,0.028 0.012,0.042 0.005,0.012 0.009,0.026 0.012,0.032 0.018,0.047 0.037,0.095 0.058,0.141 0.086,0.19 0.19,0.373 0.303,0.549 0.188,0.29 0.4,0.561 0.613,0.832 0.058,0.075 0.038,0.216 0.012,0.298 -0.019,0.058 -0.047,0.112 -0.081,0.162 0.016,0.015 0.035,0.027 0.05,0.043 0.23,0.252 0.447,0.551 0.505,0.935 0.073,0.393 -0.148,0.801 -0.428,1.033 C 11.325,5.658 10.972,5.813 10.679,5.93 10.391,6.052 10.12,6.214 9.94,6.434 9.753,6.65 9.693,6.934 9.746,7.23 c 0.053,0.297 0.197,0.592 0.369,0.866 0.17,0.28 0.383,0.537 0.604,0.788 C 10.181,8.497 9.657,8.007 9.444,7.298 Z m 2.58,-4.82 c -0.005,0.003 -0.009,0.006 -0.013,0.009 -10e-4,0 -10e-4,10e-4 -0.002,10e-4 0.015,-0.01 0.008,-0.005 0.015,-0.01 z m 0.273,1.502 c -0.078,0.259 0.006,0.529 0.123,0.76 0.104,0.207 0.243,0.398 0.385,0.581 0.03,0.04 0.061,0.079 0.092,0.118 0.075,0.097 0.186,0.083 0.278,0.019 0.019,0.027 0.042,0.051 0.058,0.079 0.143,0.21 0.253,0.445 0.262,0.663 0.007,0.215 -0.099,0.396 -0.283,0.536 -0.09,0.07 -0.191,0.134 -0.3,0.189 -0.112,0.056 -0.214,0.093 -0.354,0.151 -0.257,0.118 -0.521,0.268 -0.715,0.523 -0.196,0.253 -0.252,0.617 -0.159,0.902 0.178,0.577 0.607,0.958 1.048,1.258 C 12.392,9.353 12.075,8.898 11.985,8.433 11.889,7.962 12.255,7.626 12.716,7.442 12.945,7.348 13.235,7.221 13.456,7.025 13.684,6.834 13.868,6.493 13.804,6.169 13.754,5.853 13.573,5.612 13.384,5.414 13.355,5.385 13.32,5.36 13.288,5.332 13.299,5.313 13.31,5.296 13.317,5.276 13.331,5.229 13.343,5.149 13.31,5.108 13.19,4.955 13.071,4.802 12.965,4.64 12.9,4.541 12.842,4.437 12.794,4.33 12.783,4.304 12.771,4.278 12.761,4.25 12.759,4.246 12.757,4.239 12.755,4.232 12.753,4.224 12.751,4.216 12.748,4.209 12.734,4.159 12.723,4.108 12.718,4.055 12.716,4.053 12.716,4.051 12.716,4.05 c 0,-0.009 0,-0.016 0.001,-0.024 0,-0.009 0.003,-0.028 0.005,-0.044 0.003,-0.004 0.004,-0.011 0.006,-0.016 0.003,-0.005 0.005,-0.008 0.006,-0.012 0.004,-0.002 0.006,-0.004 0.01,-0.008 0.004,-0.001 0.015,-0.009 0.023,-0.013 0.001,0 0.003,-0.002 0.004,-0.002 0.004,-0.002 0.007,-0.002 0.012,-0.002 0.009,0 0.019,0 0.027,0 h 10e-4 c 0.02,0.004 0.04,0.012 0.058,0.021 0.006,0.003 0.017,0.008 0.021,0.011 0.012,0.009 0.023,0.017 0.035,0.025 0.024,0.019 0.046,0.04 0.066,0.06 0.012,0.012 0.021,0.024 0.033,0.035 0.002,0.003 0.009,0.011 0.015,0.018 0.073,0.095 0.132,0.203 0.182,0.313 0.052,0.119 0.228,0.071 0.299,0.005 0.047,-0.043 0.093,-0.083 0.143,-0.12 0.008,-0.007 0.017,-0.013 0.026,-0.019 0.002,-0.002 0.039,-0.025 0.052,-0.032 0.014,-0.008 0.028,-0.014 0.043,-0.021 0.004,-10e-4 0.009,-0.003 0.011,-0.004 0.004,-0.001 0.009,-0.001 0.013,-0.003 0.005,0 0.01,-0.002 0.015,-0.002 0.002,0 0.003,0.002 0.004,0.002 0.002,0.002 0.004,0.003 0.005,0.004 0.003,0.006 0.007,0.014 0.01,0.019 10e-4,0.002 10e-4,0.002 10e-4,0.002 0.004,0.012 0.004,0.024 0.006,0.036 0.002,0.006 0.003,0.018 0.004,0.027 -10e-4,0.02 -0.003,0.043 -0.005,0.066 0,0.013 -0.003,0.027 -0.005,0.042 -10e-4,0.002 -0.002,0.006 -0.002,0.01 -0.008,0.037 -0.02,0.073 -0.034,0.109 C 13.804,4.542 13.796,4.56 13.792,4.572 13.787,4.581 13.783,4.591 13.778,4.599 13.759,4.634 13.741,4.668 13.72,4.702 13.708,4.72 13.693,4.737 13.68,4.753 13.668,4.766 13.658,4.778 13.645,4.791 13.642,4.795 13.639,4.796 13.636,4.799 13.62,4.814 13.602,4.828 13.584,4.841 13.58,4.845 13.575,4.848 13.57,4.853 13.464,4.919 13.367,5.04 13.391,5.175 13.413,5.298 13.555,5.326 13.651,5.267 13.862,5.138 14.028,4.953 14.144,4.733 14.236,4.561 14.309,4.354 14.303,4.156 14.3,3.992 14.249,3.789 14.062,3.749 13.879,3.709 13.698,3.794 13.544,3.901 13.438,3.716 13.292,3.543 13.094,3.473 12.753,3.351 12.393,3.67 12.297,3.98 Z m 1.28,0.867 c -10e-4,10e-4 -0.002,10e-4 -0.003,0.002 0.049,-0.035 0.019,-0.012 0.003,-0.002 z"
           style="fill:#767676;fill-opacity:1"
           inkscape:connector-curvature="0" />
      </g>
      <g
         id="g4587"
         style="fill:#767676;fill-opacity:1" />
      <g
         id="g4589"
         style="fill:#767676;fill-opacity:1" />
      <g
         id="g4591"
         style="fill:#767676;fill-opacity:1" />
      <g
         id="g4593"
         style="fill:#767676;fill-opacity:1" />
      <g
         id="g4595"
         style="fill:#767676;fill-opacity:1" />
      <g
         id="g4597"
         style="fill:#767676;fill-opacity:1" />
      <g
         id="g4599"
         style="fill:#767676;fill-opacity:1" />
      <g
         id="g4601"
         style="fill:#767676;fill-opacity:1" />
      <g
         id="g4603"
         style="fill:#767676;fill-opacity:1" />
      <g
         id="g4605"
         style="fill:#767676;fill-opacity:1" />
      <g
         id="g4607"
         style="fill:#767676;fill-opacity:1" />
      <g
         id="g4609"
         style="fill:#767676;fill-opacity:1" />
      <g
         id="g4611"
         style="fill:#767676;fill-opacity:1" />
      <g
         id="g4613"
         style="fill:#767676;fill-opacity:1" />
      <g
         id="g4615"
         style="fill:#767676;fill-opacity:1" />
    </g>
  </g>
</svg>
