<?xml version="1.0" encoding="UTF-8" standalone="no"?>
<svg
   xmlns:dc="http://purl.org/dc/elements/1.1/"
   xmlns:cc="http://creativecommons.org/ns#"
   xmlns:rdf="http://www.w3.org/1999/02/22-rdf-syntax-ns#"
   xmlns:svg="http://www.w3.org/2000/svg"
   xmlns="http://www.w3.org/2000/svg"
   xmlns:sodipodi="http://sodipodi.sourceforge.net/DTD/sodipodi-0.dtd"
   xmlns:inkscape="http://www.inkscape.org/namespaces/inkscape"
   width="512px"
   height="229px"
   viewBox="0 0 512 229"
   version="1.1"
   preserveAspectRatio="xMidYMid"
   id="svg14"
   sodipodi:docname="logo.svg"
   inkscape:version="0.92.3 (2405546, 2018-03-11)"
   inkscape:export-filename="/home/gael/Desktop/git/coquin-the-card-game/logo/logo.png"
   inkscape:export-xdpi="37.846642"
   inkscape:export-ydpi="37.846642">
  <metadata
     id="metadata20">
    <rdf:RDF>
      <cc:Work
         rdf:about="">
        <dc:format>image/svg+xml</dc:format>
        <dc:type
           rdf:resource="http://purl.org/dc/dcmitype/StillImage" />
      </cc:Work>
    </rdf:RDF>
  </metadata>
  <defs
     id="defs18" />
  <sodipodi:namedview
     pagecolor="#ffffff"
     bordercolor="#666666"
     borderopacity="1"
     objecttolerance="10"
     gridtolerance="10"
     guidetolerance="10"
     inkscape:pageopacity="0"
     inkscape:pageshadow="2"
     inkscape:window-width="2556"
     inkscape:window-height="1396"
     id="namedview16"
     showgrid="false"
     inkscape:zoom="2.6093751"
     inkscape:cx="254.97476"
     inkscape:cy="61.766037"
     inkscape:window-x="1920"
     inkscape:window-y="20"
     inkscape:window-maximized="1"
     inkscape:current-layer="g12" />
  <g
     id="g12">
    <polyline
       fill="#963398"
       points="156.60973 17.2511712 156.60973 228.28973 116.307027 187.998559 0 187.998559 0 17.2511712 156.171532 17.2511712"
       id="polyline2" />
    <polygon
       fill="#1EBDBF"
       points="174.725766 0 174.725766 211.038559 134.423063 170.735856 18.116036 170.735856 18.116036 0"
       id="polygon4"
       style="fill:#bf1eb7;fill-opacity:1" />
    <polygon
       fill="#492670"
       points="18.116036 17.2511712 18.116036 170.83964 134.457658 170.83964 156.575135 192.991712 156.575135 17.6663063"
       id="polygon6" />
    <g
       aria-label="Coquin"
       style="font-style:normal;font-weight:normal;font-size:119.25778961px;line-height:125%;font-family:sans-serif;letter-spacing:0px;word-spacing:0px;fill:#e5d9f5;fill-opacity:1;stroke:none;stroke-width:1.39755213px;stroke-linecap:butt;stroke-linejoin:miter;stroke-opacity:1"
       id="text829">
      <path
         d="m 248.69996,148.2021 -0.71555,-7.6325 c -0.11925,-0.59629 -0.59629,-1.19258 -1.31183,-1.19258 0,0 -0.59629,0.11926 -0.83481,0.23852 -2.86218,2.14664 -5.84363,4.05476 -9.18285,5.12808 -3.45847,1.07332 -7.03621,1.31184 -10.61394,1.31184 -6.67844,0 -12.9991,-2.86219 -16.93461,-8.22879 -5.00882,-6.91695 -6.08214,-15.62277 -6.08214,-24.09007 0,-8.58656 1.07332,-17.292383 6.08214,-24.090077 3.93551,-5.366601 10.25617,-8.228788 16.93461,-8.228788 3.21996,0 6.32066,0.357773 9.30211,1.311836 2.98144,0.954062 5.72437,2.623671 8.22879,4.412538 0.23851,0.238516 0.47703,0.357773 0.8348,0.357773 0.59629,0 1.19258,-0.477031 1.31184,-1.192578 l 1.6696,-9.421365 c 0,-0.834804 -0.35777,-1.311836 -0.8348,-1.550351 -3.21996,-1.311836 -6.55918,-2.504414 -10.01765,-3.21996 -3.45848,-0.715547 -6.91696,-0.954063 -10.49469,-0.954063 -10.49469,0 -20.87011,3.339218 -27.78706,11.210232 -7.51325,8.467303 -9.77914,20.035313 -9.77914,31.364803 0,11.32949 2.26589,22.89749 9.77914,31.36479 6.91695,7.87102 17.29237,11.21024 27.78706,11.21024 3.93551,0 7.87101,-0.23852 11.68726,-1.4311 3.697,-1.07332 7.15547,-3.21996 10.37543,-5.48585 0.35777,-0.23852 0.59629,-0.59629 0.59629,-1.19258 z"
         style="font-style:normal;font-variant:normal;font-weight:600;font-stretch:normal;font-family:'Latin Modern Sans Demi Cond';-inkscape-font-specification:'Latin Modern Sans Demi Cond Semi-Bold';fill:#e5d9f5;fill-opacity:1;stroke-width:1.39755213px"
         id="path827" />
      <path
         d="m 308.02139,127.45124 c 0,-5.60511 -0.59629,-15.02648 -6.2014,-22.06269 -5.12809,-6.559178 -12.87984,-8.348044 -18.96199,-8.348044 -6.55918,0 -14.31094,2.14664 -19.08125,8.586564 -4.88957,6.43992 -6.08214,14.43019 -6.08214,21.82417 0,6.43992 0.8348,14.54945 6.32066,21.22789 3.69699,4.41254 10.37543,7.6325 18.84273,7.6325 5.24734,0 13.11836,-1.31184 18.48496,-7.39399 6.32066,-7.03621 6.67843,-16.69609 6.67843,-21.4664 z m -13.23761,-1.43109 c 0,7.99027 0,21.94343 -11.92578,21.94343 -11.92578,0 -11.92578,-13.95316 -11.92578,-21.94343 0,-7.99027 0,-21.34715 11.92578,-21.34715 11.92578,0 11.92578,13.47613 11.92578,21.34715 z"
         style="font-style:normal;font-variant:normal;font-weight:600;font-stretch:normal;font-family:'Latin Modern Sans Demi Cond';-inkscape-font-specification:'Latin Modern Sans Demi Cond Semi-Bold';fill:#e5d9f5;fill-opacity:1;stroke-width:1.39755213px"
         id="path829" />
      <path
         d="m 365.02661,169.78776 v -66.90362 c 0,-3.696994 -0.71554,-5.247346 -5.24734,-5.247346 h -2.38516 c -4.17402,0 -5.24734,1.192578 -5.24734,5.247346 v 2.14664 c -3.45848,-5.962892 -7.99027,-7.393986 -12.04504,-7.393986 -3.1007,0 -12.28355,0.715547 -17.65015,9.779136 -3.93551,6.67844 -4.41254,13.95316 -4.41254,19.67754 0,11.80652 3.57774,29.21816 21.34715,29.21816 4.41254,0 8.82507,-1.66961 12.40281,-6.32067 v 19.7968 c 0,3.69699 0.71554,5.24734 5.24734,5.24734 h 2.74293 c 4.17402,0 5.24734,-1.19258 5.24734,-5.24734 z m -12.87984,-27.66781 c -1.55035,3.1007 -4.77031,6.55918 -9.54062,6.55918 -8.70582,0 -11.32949,-10.61394 -11.32949,-21.4664 0,-3.33922 0,-21.22789 12.28355,-21.22789 5.24734,0 8.58656,4.88957 8.58656,9.77914 z"
         style="font-style:normal;font-variant:normal;font-weight:600;font-stretch:normal;font-family:'Latin Modern Sans Demi Cond';-inkscape-font-specification:'Latin Modern Sans Demi Cond Semi-Bold';fill:#e5d9f5;fill-opacity:1;stroke-width:1.39755213px"
         id="path831" />
      <path
         d="m 422.79771,149.87171 v -45.79499 c 0,-3.697 -0.71555,-5.247348 -5.24735,-5.247348 h -2.74293 c -4.17402,0 -5.24734,1.192578 -5.24734,5.247348 v 29.45667 c 0,7.75176 -2.98144,16.45757 -10.97172,16.45757 -6.2014,0 -7.15546,-2.26589 -7.15546,-9.42136 v -36.49288 c 0,-3.697 -0.71555,-5.247348 -5.24735,-5.247348 h -2.62367 c -4.17402,0 -5.3666,1.07332 -5.3666,5.366598 v 35.53882 c 0,12.1643 5.72438,16.57684 17.41164,16.57684 2.38515,0 9.77914,0 14.31093,-10.13692 v 3.697 c 0,3.69699 0.71555,5.24734 5.24735,5.24734 h 2.38515 c 4.17402,0 5.24735,-1.19258 5.24735,-5.24734 z"
         style="font-style:normal;font-variant:normal;font-weight:600;font-stretch:normal;font-family:'Latin Modern Sans Demi Cond';-inkscape-font-specification:'Latin Modern Sans Demi Cond Semi-Bold';fill:#e5d9f5;fill-opacity:1;stroke-width:1.39755213px"
         id="path833" />
      <path
         d="m 448.72695,149.87171 v -45.79499 c 0,-3.697 -0.71554,-5.247348 -5.24734,-5.247348 h -2.2659 c -4.17402,0 -5.3666,1.07332 -5.3666,5.366598 v 45.55648 c 0,4.17402 1.07332,5.3666 5.3666,5.3666 h 2.2659 c 4.17402,0 5.24734,-1.19258 5.24734,-5.24734 z m 0.95407,-67.261397 v -2.862187 c 0,-4.531796 -1.19258,-5.605116 -5.36661,-5.605116 h -3.9355 c -4.05477,0 -5.3666,0.954062 -5.3666,5.605116 v 2.862187 c 0,4.29328 1.07332,5.605116 5.3666,5.605116 h 3.9355 c 4.17403,0 5.36661,-1.192578 5.36661,-5.605116 z"
         style="font-style:normal;font-variant:normal;font-weight:600;font-stretch:normal;font-family:'Latin Modern Sans Demi Cond';-inkscape-font-specification:'Latin Modern Sans Demi Cond Semi-Bold';fill:#e5d9f5;fill-opacity:1;stroke-width:1.39755213px"
         id="path835" />
      <path
         d="m 506.41791,149.87171 v -35.53882 c 0,-9.54063 -2.98144,-16.696096 -15.26499,-16.696096 -8.82508,0 -13.71465,5.605116 -16.69609,12.164296 h -0.11926 v -6.43992 c 0,-3.696993 -0.71555,-5.247344 -5.24734,-5.247344 h -1.90813 c -4.17402,0 -5.3666,1.07332 -5.3666,5.366604 v 46.27202 c 0,4.17402 1.07332,5.3666 5.3666,5.3666 h 2.62367 c 4.17403,0 5.24735,-1.19258 5.24735,-5.24734 v -28.50262 c 0,-10.85245 6.08214,-16.0998 11.68726,-16.0998 5.00883,0 6.43992,2.86219 6.43992,9.54063 v 35.06179 c 0,3.69699 0.71555,5.24734 5.24734,5.24734 h 2.74293 c 4.17402,0 5.24734,-1.19258 5.24734,-5.24734 z"
         style="font-style:normal;font-variant:normal;font-weight:600;font-stretch:normal;font-family:'Latin Modern Sans Demi Cond';-inkscape-font-specification:'Latin Modern Sans Demi Cond Semi-Bold';fill:#e5d9f5;fill-opacity:1;stroke-width:1.39755213px"
         id="path837" />
    </g>
    <g
       aria-label="C"
       transform="scale(1.0244623,0.97612181)"
       style="font-style:normal;font-weight:normal;font-size:115.53909302px;line-height:125%;font-family:sans-serif;letter-spacing:0px;word-spacing:0px;fill:#000000;fill-opacity:1;stroke:none;stroke-width:2.88847733px;stroke-linecap:butt;stroke-linejoin:miter;stroke-opacity:1"
       id="text821-6">
      <path
         d="m 118.00094,130.10569 q -5.98005,3.10286 -12.46785,4.68249 -6.487786,1.57964 -13.539733,1.57964 -21.043009,0 -33.341604,-11.73444 -12.298594,-11.79086 -12.298594,-31.931216 0,-20.196775 12.298594,-31.931214 12.298595,-11.790855 33.341604,-11.790855 7.051947,0 13.539733,1.579636 6.4878,1.579636 12.46785,4.682493 v 17.432412 q -6.03647,-4.118337 -11.90369,-6.036467 -5.86722,-1.918129 -12.35501,-1.918129 -11.621608,0 -18.278646,7.446856 -6.657037,7.446855 -6.657037,20.535268 0,13.031996 6.657037,20.478856 6.657038,7.44685 18.278646,7.44685 6.48779,0 12.35501,-1.91813 5.86722,-1.91813 11.90369,-6.03646 z"
         style="font-style:normal;font-variant:normal;font-weight:bold;font-stretch:normal;font-family:sans-serif;-inkscape-font-specification:'sans-serif Bold';fill:#ad7aba;fill-opacity:1;stroke-width:2.88847733px"
         id="path821" />
    </g>
    <g
       aria-label="C"
       transform="scale(1.0582441,0.94496156)"
       style="font-style:normal;font-weight:normal;font-size:86.55841064px;line-height:125%;font-family:sans-serif;letter-spacing:0px;word-spacing:0px;fill:#000000;fill-opacity:1;stroke:none;stroke-width:2.16396046px;stroke-linecap:butt;stroke-linejoin:miter;stroke-opacity:1"
       id="text821-3-5">
      <path
         d="m 114.24055,124.24451 q -4.48007,2.32457 -9.34053,3.50798 -4.86046,1.18342 -10.143565,1.18342 -15.764789,0 -24.978526,-8.79109 -9.213737,-8.83335 -9.213737,-23.921904 0,-15.130816 9.213737,-23.921905 9.213737,-8.833353 24.978526,-8.833353 5.283105,0 10.143565,1.183415 4.86046,1.183416 9.34053,3.507983 v 13.059838 q -4.52234,-3.085334 -8.91788,-4.522339 -4.39555,-1.437005 -9.256005,-1.437005 -8.706559,0 -13.693811,5.57896 -4.987252,5.578961 -4.987252,15.384406 0,9.763184 4.987252,15.342144 4.987252,5.57896 13.693811,5.57896 4.860455,0 9.256005,-1.43701 4.39554,-1.437 8.91788,-4.52234 z"
         style="font-style:normal;font-variant:normal;font-weight:bold;font-stretch:normal;font-family:sans-serif;-inkscape-font-specification:'sans-serif Bold';fill:#6c3d79;fill-opacity:1;stroke-width:2.16396046px"
         id="path824" />
    </g>
  </g>
</svg>
