<?xml version="1.0" encoding="UTF-8" standalone="no"?>
<svg
   xmlns:dc="http://purl.org/dc/elements/1.1/"
   xmlns:cc="http://creativecommons.org/ns#"
   xmlns:rdf="http://www.w3.org/1999/02/22-rdf-syntax-ns#"
   xmlns:svg="http://www.w3.org/2000/svg"
   xmlns="http://www.w3.org/2000/svg"
   xmlns:sodipodi="http://sodipodi.sourceforge.net/DTD/sodipodi-0.dtd"
   xmlns:inkscape="http://www.inkscape.org/namespaces/inkscape"
   width="174.72577"
   height="228.28973"
   viewBox="0 0 174.72577 228.28973"
   version="1.1"
   preserveAspectRatio="xMidYMid"
   id="svg14"
   sodipodi:docname="short_logo.svg"
   inkscape:version="0.92.3 (2405546, 2018-03-11)"
   inkscape:export-filename="/home/gael/Desktop/git/coquin-the-card-game/logo/logo.png"
   inkscape:export-xdpi="37.846642"
   inkscape:export-ydpi="37.846642">
  <metadata
     id="metadata20">
    <rdf:RDF>
      <cc:Work
         rdf:about="">
        <dc:format>image/svg+xml</dc:format>
        <dc:type
           rdf:resource="http://purl.org/dc/dcmitype/StillImage" />
        <dc:title />
      </cc:Work>
    </rdf:RDF>
  </metadata>
  <defs
     id="defs18" />
  <sodipodi:namedview
     pagecolor="#ffffff"
     bordercolor="#666666"
     borderopacity="1"
     objecttolerance="10"
     gridtolerance="10"
     guidetolerance="10"
     inkscape:pageopacity="0"
     inkscape:pageshadow="2"
     inkscape:window-width="2556"
     inkscape:window-height="1396"
     id="namedview16"
     showgrid="false"
     inkscape:zoom="1.8451068"
     inkscape:cx="-97.681176"
     inkscape:cy="104.58423"
     inkscape:window-x="1920"
     inkscape:window-y="20"
     inkscape:window-maximized="1"
     inkscape:current-layer="g12"
     fit-margin-top="0"
     fit-margin-left="0"
     fit-margin-right="0"
     fit-margin-bottom="0" />
  <g
     id="g12"
     transform="translate(-0.54471925,-1.9710589)">
    <polyline
       style="fill:#963398"
       points="156.60973 17.2511712 156.60973 228.28973 116.307027 187.998559 0 187.998559 0 17.2511712 156.171532 17.2511712"
       id="polyline2-3"
       transform="translate(0.54471925,1.9710589)" />
    <polygon
       points="18.116036,170.73586 18.116036,0 174.72577,0 174.72577,211.03856 134.42306,170.73586 "
       id="polygon4-6"
       style="fill:#bf1eb7;fill-opacity:1"
       transform="translate(0.54471925,1.9710589)" />
    <polygon
       style="fill:#492670"
       points="156.57513,192.99171 156.57513,17.666306 18.116036,17.251171 18.116036,170.83964 134.45766,170.83964 "
       id="polygon6-7"
       transform="translate(0.54471925,1.9710589)" />
    <g
       aria-label="C"
       transform="scale(1.0244623,0.97612181)"
       style="font-style:normal;font-weight:normal;font-size:115.53909302px;line-height:125%;font-family:sans-serif;letter-spacing:0px;word-spacing:0px;fill:#000000;fill-opacity:1;stroke:none;stroke-width:2.88847733px;stroke-linecap:butt;stroke-linejoin:miter;stroke-opacity:1"
       id="text821-6">
      <path
         d="m 118.53265,132.12496 q -5.98005,3.10286 -12.46784,4.68249 -6.487795,1.57964 -13.539741,1.57964 -21.043009,0 -33.341604,-11.73444 Q 46.88487,114.8618 46.88487,94.721436 q 0,-20.196775 12.298595,-31.931214 12.298595,-11.790855 33.341604,-11.790855 7.051946,0 13.539741,1.579636 6.48779,1.579636 12.46784,4.682493 v 17.432412 q -6.03647,-4.118337 -11.90369,-6.036467 -5.86722,-1.918129 -12.355009,-1.918129 -11.621608,0 -18.278645,7.446855 -6.657038,7.446856 -6.657038,20.535269 0,13.031994 6.657038,20.478854 6.657037,7.44685 18.278645,7.44685 6.487789,0 12.355009,-1.91813 5.86722,-1.91812 11.90369,-6.03646 z"
         style="font-style:normal;font-variant:normal;font-weight:bold;font-stretch:normal;font-family:sans-serif;-inkscape-font-specification:'sans-serif Bold';fill:#ad7aba;fill-opacity:1;stroke-width:2.88847733px"
         id="path822" />
    </g>
    <g
       aria-label="C"
       transform="scale(1.0582441,0.94496156)"
       style="font-style:normal;font-weight:normal;font-size:86.55841064px;line-height:125%;font-family:sans-serif;letter-spacing:0px;word-spacing:0px;fill:#000000;fill-opacity:1;stroke:none;stroke-width:2.16396046px;stroke-linecap:butt;stroke-linejoin:miter;stroke-opacity:1"
       id="text821-3-5">
      <path
         d="m 114.75529,126.33038 q -4.48008,2.32457 -9.34054,3.50798 -4.86045,1.18342 -10.143559,1.18342 -15.764788,0 -24.978526,-8.79109 -9.213737,-8.83335 -9.213737,-23.921906 0,-15.130816 9.213737,-23.921904 9.213738,-8.833354 24.978526,-8.833354 5.283109,0 10.143559,1.183416 4.86046,1.183416 9.34054,3.507983 v 13.059838 q -4.52234,-3.085334 -8.91789,-4.522339 -4.39554,-1.437005 -9.255998,-1.437005 -8.706559,0 -13.693812,5.57896 -4.987252,5.57896 -4.987252,15.384405 0,9.763176 4.987252,15.342136 4.987253,5.57896 13.693812,5.57896 4.860458,0 9.255998,-1.437 4.39555,-1.43701 8.91789,-4.52234 z"
         style="font-style:normal;font-variant:normal;font-weight:bold;font-stretch:normal;font-family:sans-serif;-inkscape-font-specification:'sans-serif Bold';fill:#6c3d79;fill-opacity:1;stroke-width:2.16396046px"
         id="path825" />
    </g>
  </g>
</svg>
